<svg width="600" viewBox="0 0 600 400" fill="none" xmlns="http://www.w3.org/2000/svg">

  <!-- PRIMARY — light background -->
  <rect x="0" y="0" width="600" height="120" fill="#F7F6F3"/>
  <rect x="40" y="28" width="48" height="11" rx="2" fill="#1A3A2A"/>
  <rect x="40" y="46" width="34" height="11" rx="2" fill="#1A3A2A"/>
  <rect x="40" y="64" width="20" height="11" rx="2" fill="#C8A96E"/>
  <text x="104" y="52" font-family="Manrope,Helvetica Neue,Arial,sans-serif" font-weight="800" font-size="28" letter-spacing="-0.035em" fill="#0D0D0D">Fabro</text>
  <line x1="104" y1="59" x2="380" y2="59" stroke="#DDDBD5" stroke-width="1"/>
  <text x="105" y="73" font-family="Manrope,Helvetica Neue,Arial,sans-serif" font-weight="400" font-size="10" letter-spacing="0.22em" fill="#888888">CONSULTING GROUP</text>

  <!-- PRIMARY — dark background -->
  <rect x="0" y="130" width="600" height="120" fill="#1A3A2A"/>
  <rect x="40" y="158" width="48" height="11" rx="2" fill="#F7F6F3"/>
  <rect x="40" y="176" width="34" height="11" rx="2" fill="#F7F6F3"/>
  <rect x="40" y="194" width="20" height="11" rx="2" fill="#C8A96E"/>
  <text x="104" y="182" font-family="Manrope,Helvetica Neue,Arial,sans-serif" font-weight="800" font-size="28" letter-spacing="-0.035em" fill="#FFFFFF">Fabro</text>
  <line x1="104" y1="189" x2="380" y2="189" stroke="rgba(255,255,255,0.15)" stroke-width="1"/>
  <text x="105" y="203" font-family="Manrope,Helvetica Neue,Arial,sans-serif" font-weight="400" font-size="10" letter-spacing="0.22em" fill="rgba(255,255,255,0.5)">CONSULTING GROUP</text>

  <!-- PRIMARY — black background -->
  <rect x="0" y="260" width="600" height="120" fill="#0D0D0D"/>
  <rect x="40" y="288" width="48" height="11" rx="2" fill="#F7F6F3"/>
  <rect x="40" y="306" width="34" height="11" rx="2" fill="#F7F6F3"/>
  <rect x="40" y="324" width="20" height="11" rx="2" fill="#C8A96E"/>
  <text x="104" y="312" font-family="Manrope,Helvetica Neue,Arial,sans-serif" font-weight="800" font-size="28" letter-spacing="-0.035em" fill="#FFFFFF">Fabro</text>
  <line x1="104" y1="319" x2="380" y2="319" stroke="rgba(255,255,255,0.12)" stroke-width="1"/>
  <text x="105" y="333" font-family="Manrope,Helvetica Neue,Arial,sans-serif" font-weight="400" font-size="10" letter-spacing="0.22em" fill="rgba(255,255,255,0.4)">CONSULTING GROUP</text>

  <!-- Dividers -->
  <line x1="0" y1="120" x2="600" y2="120" stroke="rgba(255,255,255,0.1)" stroke-width="0.5"/>
  <line x1="0" y1="250" x2="600" y2="250" stroke="rgba(255,255,255,0.1)" stroke-width="0.5"/>

</svg>
